<svg width="54" height="55" viewBox="0 0 54 55" fill="none" xmlns="http://www.w3.org/2000/svg">
<path d="M8.86063 20.1036H8.86073C20.7114 20.105 32.5621 20.105 44.4128 20.1036C45.5264 20.1029 46.3407 19.765 46.8758 19.2293C47.4111 18.6934 47.749 17.8775 47.7503 16.7619L8.86063 20.1036ZM8.86063 20.1036C7.74527 20.1036 6.92729 19.7657 6.38942 19.2305C5.85189 18.6956 5.51305 17.8828 5.51172 16.7752L4.76172 16.776M8.86063 20.1036V20.8536C6.32222 20.8536 4.76469 19.3022 4.76172 16.776M4.76172 16.776L5.51172 16.7751M4.76172 16.776L5.51172 16.7751M5.51172 16.7751C5.50875 13.8123 5.50875 10.8495 5.51172 7.88666V7.88591C5.51172 7.57656 5.55195 7.46339 5.56563 7.43366C5.57522 7.42928 5.59218 7.42273 5.61949 7.41553C5.69695 7.3951 5.82565 7.37796 6.0339 7.37796H6.03406C10.6154 7.37698 15.1974 7.3773 19.7793 7.37763C22.0702 7.3778 24.361 7.37796 26.6518 7.37796H27.4018V7.375H27.4108H27.4507H27.4906H27.5306H27.5705H27.6105H27.6504H27.6904H27.7303H27.7702H27.8102H27.8501H27.8901H27.93H27.97H28.0099H28.0499H28.0898H28.1297H28.1697H28.2096H28.2496H28.2895H28.3295H28.3694H28.4094H28.4493H28.4892H28.5292H28.5691H28.6091H28.649H28.689H28.7289H28.7689H28.8088H28.8487H28.8887H28.9286H28.9686H29.0085H29.0485H29.0884H29.1284H29.1683H29.2082H29.2482H29.2881H29.3281H29.368H29.408H29.4479H29.4879H29.5278H29.5677H29.6077H29.6476H29.6876H29.7275H29.7675H29.8074H29.8473H29.8873H29.9272H29.9672H30.0071H30.0471H30.087H30.127H30.1669H30.2068H30.2468H30.2867H30.3267H30.3666H30.4066H30.4465H30.4865H30.5264H30.5663H30.6063H30.6462H30.6862H30.7261H30.7661H30.806H30.846H30.8859H30.9258H30.9658H31.0057H31.0457H31.0856H31.1256H31.1655H31.2055H31.2454H31.2853H31.3253H31.3652H31.4052H31.4451H31.4851H31.525H31.565H31.6049H31.6448H31.6848H31.7247H31.7647H31.8046H31.8446H31.8845H31.9245H31.9644H32.0043H32.0443H32.0842H32.1242H32.1641H32.2041H32.244H32.2839H32.3239H32.3638H32.4038H32.4437H32.4837H32.5236H32.5636H32.6035H32.6434H32.6834H32.7233H32.7633H32.8032H32.8432H32.8831H32.9231H32.963H33.0029H33.0429H33.0828H33.1228H33.1627H33.2027H33.2426H33.2826H33.3225H33.3624H33.4024H33.4423H33.4823H33.5222H33.5622H33.6021H33.6421H33.682H33.7219H33.7619H33.8018H33.8418H33.8817H33.9217H33.9616H34.0016H34.0415H34.0814H34.1214H34.1613H34.2013H34.2412H34.2812H34.3211H34.3611H34.401H34.4409H34.4809H34.5208H34.5608H34.6007H34.6407H34.6806H34.7205H34.7605H34.8004H34.8404H34.8803H34.9203H34.9602H35.0002H35.0401H35.08H35.12H35.1599H35.1999H35.2398H35.2798H35.3197H35.3597H35.3996H35.4395H35.4795H35.5194H35.5594H35.5993H35.6393H35.6792H35.7192H35.7591H35.799H35.839H35.8789H35.9189H35.9588H35.9988H36.0387H36.0787H36.1186H36.1585H36.1985H36.2384H36.2784H36.3183H36.3583H36.3982H36.4382H36.4781H36.518H36.558H36.5979H36.6379H36.6778H36.7178H36.7577H36.7976H36.8376H36.8775H36.9175H36.9574H36.9974H37.0373H37.0773H37.1172H37.1572H37.1971H37.237H37.277H37.3169H37.3569H37.3968H37.4368H37.4767H37.5166H37.5566H37.5965H37.6365H37.6764H37.7164H37.7563H37.7963H37.8362H37.8761H37.9161H37.956H37.996H38.0359H38.0759H38.1158H38.1558H38.1957H38.2356H38.2756H38.3155H38.3555H38.3954H38.4354H38.4753H38.5153H38.5552H38.5951H38.6351H38.675H38.715H38.7549H38.7949H38.8348H38.8748H38.9147H38.9546H38.9946H39.0345H39.0745H39.1144H39.1544H39.1943H39.2342H39.2742H39.3141H39.3541H39.394H39.434H39.4739H39.5139H39.5538H39.5938H39.6337H39.6736H39.7136H39.7535H39.7935H39.8334H39.8734H39.9133H39.9532H39.9932H40.0331H40.0731H40.113H40.153H40.1929H40.2329H40.2728H40.3127H40.3527H40.3926H40.4326H40.4725H40.5125H40.5524H40.5924H40.6323H40.6722H40.7122H40.7521H40.7921H40.832H40.872H40.9119H40.9519H40.9918H41.0317H41.0717H41.1116H41.1516H41.1915H41.2315H41.2714H41.3114H41.3513H41.3912H41.4312H41.4711H41.5111H41.551H41.591H41.6309H41.6708H41.7108H41.7507H41.7907H41.8306H41.8706H41.9105H41.9505H41.9904H42.0303H42.0703H42.1102H42.1502H42.1901H42.2301H42.27H42.31H42.3499H42.3898H42.4298H42.4697H42.5097H42.5496H42.5896H42.6295H42.6695H42.7094H42.7493H42.7893H42.8292H42.8692H42.9091H42.9491H42.989H43.029H43.0689H43.1088H43.1488H43.1887H43.2287H43.2686H43.3086H43.3485H43.3885H43.4284H43.4683H43.5083H43.5482H43.5882H43.6281H43.6681H43.708H43.748H43.7879H43.8278H43.8678H43.9077H43.9477H43.9876H44.0276H44.0675H44.1074H44.1474H44.1873H44.2273H44.2672H44.3072H44.3471H44.3871H44.427H44.4669H44.5069H44.5468H44.5868H44.6267H44.6667H44.7066H44.7466H44.7865H44.8264H44.8664H44.9063H44.9463H44.9862H45.0262H45.0661H45.1061H45.146H45.1859H45.2259H45.2658H45.3058H45.3457H45.3857H45.4256H45.4656H45.5055H45.5454H45.5854H45.6253H45.6653H45.7052H45.7452H45.7851H45.8251H45.865H45.9049H45.9449H45.9848H46.0248H46.0647H46.1047H46.1446H46.1846H46.2245H46.2644H46.3044H46.3443H46.3843H46.4242H46.4642H46.5041H46.544H46.584H46.6239H46.6639H46.7038H46.7438H46.7837H46.8237H46.8636H46.9035H46.9435H46.9834H47.0234H47.0633H47.1033C47.3698 7.375 47.5335 7.39104 47.6357 7.41443C47.6621 7.42048 47.6806 7.42614 47.6928 7.43056C47.6977 7.44378 47.704 7.46417 47.7106 7.49396C47.7344 7.60004 47.7503 7.76795 47.7503 8.03852C47.7503 9.0086 47.7506 9.97824 47.7509 10.9477C47.7516 12.8859 47.7523 14.8233 47.7503 16.7618L5.51172 16.7751ZM47.7135 7.43951C47.7134 7.43953 47.7126 7.43914 47.7113 7.43825C47.7128 7.43905 47.7135 7.43949 47.7135 7.43951ZM47.685 7.41196C47.6842 7.41071 47.6838 7.41001 47.6838 7.40997C47.6838 7.40993 47.6842 7.41055 47.685 7.41196ZM5.55522 7.43924C5.55518 7.43922 5.55577 7.43877 5.55715 7.43796C5.55596 7.43886 5.55527 7.43927 5.55522 7.43924Z" stroke="black" stroke-width="1.5"/>
<path d="M26.6076 51.442L26.6072 51.4405H26.5838H26.5604H26.537H26.5137H26.4903H26.4669H26.4435H26.4201H26.3967H26.3733H26.3499H26.3265H26.3031H26.2797H26.2564H26.233H26.2096H26.1862H26.1628H26.1394H26.116H26.0926H26.0692H26.0458H26.0224H25.9991H25.9757H25.9523H25.9289H25.9055H25.8821H25.8587H25.8353H25.8119H25.7885H25.7651H25.7418H25.7184H25.695H25.6716H25.6482H25.6248H25.6014H25.578H25.5546H25.5312H25.5078H25.4845H25.4611H25.4377H25.4143H25.3909H25.3675H25.3441H25.3207H25.2973H25.2739H25.2505H25.2272H25.2038H25.1804H25.157H25.1336H25.1102H25.0868H25.0634H25.04H25.0166H24.9932H24.9699H24.9465H24.9231H24.8997H24.8763H24.8529H24.8295H24.8061H24.7827H24.7593H24.7359H24.7126H24.6892H24.6658H24.6424H24.619H24.5956H24.5722H24.5488H24.5254H24.502H24.4786H24.4553H24.4319H24.4085H24.3851H24.3617H24.3383H24.3149H24.2915H24.2681H24.2447H24.2213H24.198H24.1746H24.1512H24.1278H24.1044H24.081H24.0576H24.0342H24.0108H23.9874H23.9641H23.9407H23.9173H23.8939H23.8705H23.8471H23.8237H23.8003H23.7769H23.7535H23.7301H23.7068H23.6834H23.66H23.6366H23.6132H23.5898H23.5664H23.543H23.5196H23.4962H23.4728H23.4495H23.4261H23.4027H23.3793H23.3559H23.3325H23.3091H23.2857H23.2623H23.2389H23.2155H23.1922H23.1688H23.1454H23.122H23.0986H23.0752H23.0518H23.0284H23.005H22.9816H22.9582H22.9349H22.9115H22.8881H22.8647H22.8413H22.8179H22.7945H22.7711H22.7477H22.7243H22.7009H22.6776H22.6542H22.6308H22.6074H22.584H22.5606H22.5372H22.5138H22.4904H22.467H22.4436H22.4203H22.3969H22.3735H22.3501H22.3267H22.3033H22.2799H22.2565H22.2331H22.2097H22.1863H22.163H22.1396H22.1162H22.0928H22.0694H22.046H22.0226H21.9992H21.9758H21.9524H21.929H21.9057H21.8823H21.8589H21.8355H21.8121H21.7887H21.7653H21.7419H21.7185H21.6951H21.6717H21.6484H21.625H21.6016H21.5782H21.5548H21.5314H21.508H21.4846H21.4612H21.4378H21.4144H21.3911H21.3677H21.3443H21.3209H21.2975H21.2741H21.2507H21.2273H21.2039H21.1805H21.1571H21.1338H21.1104H21.087H21.0636H21.0402H21.0168H20.9934H20.97H20.9466H20.9232H20.8998H20.8765H20.8531H20.8297H20.8063H20.7829H20.7595H20.7361H20.7127H20.6893H20.6659H20.6425H20.6192H20.5958H20.5724H20.549H20.5256H20.5022H20.4788H20.4554H20.432H20.4086H20.3852H20.3619H20.3385H20.3151H20.2917H20.2683H20.2449H20.2215H20.1981H20.1747H20.1513H20.128H20.1046H20.0812H20.0578H20.0344H20.011H19.9876H19.9642H19.9408H19.9174H19.894H19.8707H19.8473H19.8239H19.8005H19.7771H19.7537H19.7303H19.7069H19.6835H19.6601H19.6367H19.6134H19.59H19.5666H19.5432H19.5198H19.4964H19.473H19.4496H19.4262H19.4028H19.3794H19.3561H19.3327H19.3093H19.2859H19.2625H19.2391H19.2157H19.1923H19.1689H19.1455H19.1221H19.0988H19.0754H19.052H19.0286H19.0052H18.9818H18.9584H18.935H18.9116H18.8882H18.8648H18.8415H18.8181H18.7947H18.7713H18.7479H18.7245H18.7011H18.6777H18.6543H18.6309H18.6075H18.5842H18.5608H18.5374H18.514H18.4906H18.4672H18.4438H18.4204H18.397H18.3736H18.3502H18.3269H18.3035H18.2801H18.2567H18.2333H18.2099H18.1865H18.1631H18.1397H18.1163H18.0929H18.0696H18.0462H18.0228H17.9994H17.976H17.9526H17.9292H17.9058H17.8824H17.859H17.8356H17.8123H17.7889H17.7655H17.7421H17.7187H17.6953H17.6719H17.6485H17.6251H17.6017H17.5783H17.555H17.5316H17.5082H17.4848H17.4614H17.438H17.4146H17.3912H17.3678H17.3444H17.321H17.2977H17.2743H17.2509H17.2275H17.2041H17.1807H17.1573H17.1339H17.1105H17.0871H17.0637H17.0404H17.017H16.9936H16.9702H16.9468H16.9234H16.9H16.8766H16.8532H16.8298H16.8064H16.7831H16.7597H16.7363H16.7129H16.6895H16.6661H16.6427H16.6193H16.5959H16.5725H16.5491H16.5258H16.5024H16.479H16.4556H16.4322H16.4088H16.3854H16.362H16.3386H16.3152H16.2919H16.2685H16.2451H16.2217H16.1983H16.1749H16.1515H16.1281H16.1047H16.0813H16.0579H16.0346H16.0112H15.9878H15.9644H15.941H15.9176H15.8942H15.8708H15.8474H15.824H15.8006H15.7773H15.7539H15.7305H15.7071H15.6837H15.6603H15.6369H15.6135H15.5901H15.5667H15.5433H15.52H15.4966H15.4732H15.4498H15.4264H15.403H15.3796H15.3562H15.3328H15.3094H15.286H15.2627H15.2393H15.2159H15.1925H15.1691H15.1457H15.1223H15.0989H15.0755H15.0521H15.0287H15.0054H14.982H14.9586H14.9352H14.9118H14.8884H14.865H14.8416H14.8182H14.7948H14.7714H14.7481H14.7247H14.7013H14.6779H14.6545H14.6311C14.4022 51.4405 14.2611 51.4235 14.1751 51.4018C14.1467 51.3946 14.1287 51.3881 14.1182 51.3836C14.1136 51.3729 14.1069 51.3545 14.0995 51.3255C14.0775 51.2388 14.0602 51.0967 14.0598 50.8666L26.6076 51.442ZM26.6076 51.442C27.9497 51.442 29.2918 51.4422 30.6337 51.4423C33.3196 51.4427 36.0053 51.443 38.6911 51.442M26.6076 51.442L39.9358 50.9577C39.9382 49.7103 39.9375 48.4628 39.9368 47.2155C39.9358 45.2966 39.9348 43.378 39.9447 41.4598M38.6911 51.442C38.6912 51.442 38.6914 51.442 38.6916 51.442L38.6918 52.192L38.6906 51.442C38.6908 51.442 38.6909 51.442 38.6911 51.442ZM38.6911 51.442C38.9995 51.4415 39.1057 51.3968 39.1299 51.384M39.1299 51.384C39.1276 51.3884 39.1262 51.3903 39.1262 51.3903C39.1262 51.3903 39.1277 51.3881 39.1313 51.3846C39.1341 51.3818 39.1358 51.3806 39.1358 51.3806C39.1358 51.3806 39.134 51.3818 39.1299 51.384ZM39.1299 51.384C39.143 51.3592 39.1858 51.2549 39.1858 50.9577V50.9563C39.1882 49.713 39.1875 48.467 39.1868 47.22C39.1858 45.2988 39.1848 43.3753 39.1947 41.456M39.1947 41.456C39.1947 41.456 39.1947 41.456 39.1947 41.456L39.9447 41.4598M39.1947 41.456L39.9447 41.4598M39.1947 41.456C39.1964 41.1291 39.1279 40.9359 39.0404 40.8073C38.9518 40.6771 38.7934 40.5392 38.4845 40.4133L38.4844 40.4133C36.6807 39.6776 34.7767 39.2931 32.8021 39.0574L32.8017 39.0573C28.9921 38.6004 25.1702 38.5868 21.3466 38.9555L21.3463 38.9555C19.068 39.1745 16.8717 39.5604 14.7925 40.402L32.891 38.3127C34.9019 38.5527 36.8786 38.9483 38.7676 39.7188C39.5747 40.0478 39.9492 40.5871 39.9447 41.4598M14.1058 51.3772C14.1058 51.3772 14.1066 51.3776 14.1079 51.3786C14.1064 51.3777 14.1057 51.3773 14.1058 51.3772ZM14.1232 51.3939C14.1242 51.3952 14.1246 51.3959 14.1246 51.396C14.1246 51.396 14.1241 51.3954 14.1232 51.3939ZM14.2073 40.8203C14.2975 40.6828 14.4606 40.5366 14.7921 40.4022L14.0598 50.8665C14.0598 50.8664 14.0598 50.8663 14.0598 50.8663C14.0589 49.8589 14.0599 48.8499 14.061 47.84C14.0632 45.7388 14.0655 43.6337 14.0494 41.5312L14.0494 41.5308C14.0465 41.1709 14.116 40.9597 14.2073 40.8203Z" stroke="black" stroke-width="1.5"/>
<path d="M10.6507 42.4502C10.649 42.042 10.6493 41.646 10.6582 41.2541L10.6507 42.4502ZM10.6507 42.4502C9.21342 41.8999 7.82736 41.3695 6.44126 40.84C5.92354 40.6423 5.40658 40.4458 4.89034 40.2497C3.71353 39.8025 2.54046 39.3568 1.37072 38.9M10.6507 42.4502L1.37072 38.9M1.37072 38.9C9.71993 35.6977 18.0718 32.5055 26.4307 29.3304L26.4319 29.33C26.5346 29.2908 26.735 29.2904 26.8465 29.333L26.8476 29.3334C35.2007 32.5082 43.5482 35.7002 51.8917 38.9023C48.9854 40.0236 46.0742 41.1327 43.1607 42.2428C42.9736 42.314 42.7865 42.3853 42.5994 42.4566C42.5989 42.1284 42.5989 41.806 42.6011 41.4826M1.37072 38.9L21.0358 35.5639M42.6011 41.4826C42.6011 41.4829 42.6011 41.4832 42.6011 41.4835L41.8511 41.477L42.6011 41.482C42.6011 41.4822 42.6011 41.4824 42.6011 41.4826ZM42.6011 41.4826C42.6094 40.5049 42.3849 39.6306 41.8881 38.896C41.3922 38.1626 40.6649 37.6274 39.7674 37.2584M39.7674 37.2584C37.3104 36.2481 34.749 35.8056 32.1956 35.5608L32.1954 35.5608C28.4775 35.2051 24.7539 35.202 21.0358 35.5639M39.7674 37.2584L39.4821 37.952M39.7674 37.2584C39.7673 37.2584 39.7673 37.2584 39.7673 37.2584L39.4821 37.952M21.0358 35.5639L21.1084 36.3103C24.7778 35.9533 28.4531 35.9562 32.124 36.3074M21.0358 35.5639L32.124 36.3074M39.4821 37.952C37.1221 36.9815 34.6431 36.5489 32.124 36.3074M39.4821 37.952L32.124 36.3074M13.2477 37.3663L13.248 37.3661C15.7647 36.261 18.4147 35.8186 21.0357 35.5639L13.2477 37.3663ZM13.2477 37.3663C12.4381 37.7223 11.7888 38.233 11.3406 38.9102M13.2477 37.3663L11.3406 38.9102M11.3406 38.9102C10.8929 39.5866 10.6779 40.381 10.6582 41.254L11.3406 38.9102ZM41.8635 42.7311C41.8596 42.7321 41.855 42.7332 41.8499 42.7344L41.9125 42.7184C41.91 42.7192 41.898 42.7228 41.8635 42.7311ZM43.4274 42.9438C43.1519 43.0487 42.8764 43.1537 42.6009 43.2586L52.4167 39.1038C52.4251 39.1116 52.4375 39.1238 52.4548 39.1422C52.4781 39.1669 52.4983 39.1897 52.5256 39.2205C52.538 39.2345 52.5519 39.2501 52.5681 39.2683C52.6011 39.3052 52.6424 39.3508 52.6895 39.3982C49.6061 40.5897 46.5171 41.7666 43.4274 42.9438ZM53.1095 39.0682C53.0354 39.157 52.9613 39.2457 52.8768 39.3076L53.1884 38.9754C53.1618 39.0056 53.1356 39.0369 53.1095 39.0682ZM53.0938 38.7309C53.1215 38.762 53.1491 38.7932 53.1771 38.8233L52.8416 38.4836C52.9323 38.5487 53.0131 38.6398 53.0938 38.7309ZM52.6929 38.4065C52.6425 38.459 52.599 38.5099 52.5659 38.5492C52.5507 38.5673 52.5379 38.5825 52.5267 38.596C52.5025 38.6249 52.4852 38.6456 52.4651 38.6683C52.458 38.6762 52.4521 38.6826 52.4473 38.6878L52.6929 38.4065Z" stroke="black" stroke-width="1.5"/>
<path d="M20.1692 25.1256L20.1691 25.1267C20.1376 25.8018 20.2242 26.4627 20.5028 27.0788C20.6143 27.3253 20.7533 27.5575 20.92 27.7752C19.1576 28.4487 17.401 29.12 15.6485 29.7896C12.286 31.0745 8.93893 32.3535 5.59591 33.6316C5.57985 33.3891 5.56456 33.1043 5.55026 32.7839C5.50433 31.7553 5.46983 30.3901 5.45001 28.9452C5.41953 26.7237 5.42419 24.3445 5.47294 22.7262C6.4997 23.2819 7.61951 23.5192 8.80711 23.5142L8.80718 23.5142C11.5338 23.5025 14.2596 23.5046 16.9876 23.5067C18.0492 23.5075 19.1112 23.5083 20.1737 23.5083H20.175H20.1763H20.1776H20.1788H20.1801H20.181C20.1812 23.5318 20.1815 23.5552 20.1817 23.5785C20.1879 24.1228 20.1936 24.6186 20.1692 25.1256Z" stroke="black" stroke-width="1.5"/>
<path d="M33.0691 23.4846C34.0634 23.4845 35.0562 23.4821 36.0478 23.4797C38.4772 23.4739 40.9003 23.4681 43.3254 23.4964L43.3257 23.4964C44.7289 23.5123 46.2586 23.4758 47.6686 22.7642V33.6071C44.3539 32.3404 41.0694 31.0857 37.7785 29.8285C35.967 29.1365 34.1536 28.4437 32.3321 27.7478C32.4999 27.5276 32.6393 27.293 32.7509 27.0438C33.0269 26.4276 33.1122 25.7678 33.0807 25.0944L33.0691 23.4846ZM33.0691 23.4846C33.0689 23.5041 33.0687 23.5236 33.0684 23.5431C33.0626 24.0871 33.0572 24.5849 33.0807 25.094L33.0691 23.4846Z" stroke="black" stroke-width="1.5"/>
<path d="M34.9751 3.953C34.9763 3.62055 34.9765 3.28863 34.9713 2.96056L34.9713 2.96002C34.9639 2.50714 34.8597 2.01588 34.4981 1.64487C34.1306 1.26774 33.6365 1.15646 33.1692 1.1555L33.169 1.1555C28.8062 1.14809 24.4435 1.14809 20.0807 1.1555C20.0805 1.1555 20.0803 1.1555 20.0801 1.1555L20.0813 1.9055M34.9751 3.953L18.2731 4.70152C18.2731 4.52019 18.2724 4.33842 18.2717 4.15669C18.2714 4.08829 18.2712 4.01989 18.2709 3.95152H19.0209C19.0198 3.62049 19.0195 3.29469 19.0246 2.96938C19.038 2.2463 19.3575 1.9055 20.0813 1.9055M34.9751 3.953H35.3753V3.95274V3.94805V3.94335V3.93866V3.93397V3.92928V3.92459V3.9199V3.91521V3.91052V3.90584V3.90115V3.89647V3.89178V3.8871V3.88241V3.87773V3.87305V3.86837V3.86369V3.85901V3.85433V3.84966V3.84498V3.8403V3.83563V3.83096V3.82628V3.82161V3.81694V3.81227V3.8076V3.80293V3.79826V3.79359V3.78892V3.78426V3.77959V3.77493V3.77026V3.7656V3.76094V3.75627V3.75161V3.74695V3.74229V3.73763V3.73298V3.72832V3.72366V3.719V3.71435V3.70969V3.70504V3.70039V3.69573V3.69108V3.68643V3.68178V3.67713V3.67248V3.66783V3.66319V3.65854V3.65389V3.64925V3.6446V3.63996V3.63531V3.63067V3.62603V3.62139V3.61675V3.61211V3.60747V3.60283V3.59819V3.59355V3.58892V3.58428V3.57965V3.57501V3.57038V3.56574V3.56111V3.55648V3.55185V3.54721V3.54258V3.53795V3.53333V3.5287V3.52407V3.51944V3.51482V3.51019V3.50556V3.50094V3.49632V3.49169V3.48707V3.48245V3.47783V3.4732V3.46858V3.46396V3.45934V3.45473V3.45011V3.44549V3.44087V3.43626V3.43164V3.42703V3.42241V3.4178V3.41318V3.40857V3.40396V3.39935V3.39474V3.39013V3.38552V3.38091V3.3763V3.37169V3.36708V3.36247V3.35787V3.35326V3.34866V3.34405V3.33945V3.33484V3.33024V3.32564V3.32103V3.31643V3.31183V3.30723V3.30263V3.29803V3.29343V3.28883V3.28423V3.27964V3.27504V3.27044V3.26585V3.26125V3.25665V3.25206V3.24747V3.24287V3.23828V3.23369V3.22909V3.2245V3.21991V3.21532V3.21073V3.20614V3.20155V3.19696V3.19237V3.18778V3.1832V3.17861V3.17402V3.16944V3.16485V3.16027V3.15568V3.1511V3.14651V3.14193V3.13735V3.13276V3.12818V3.1236V3.11902V3.11444V3.10986V3.10528V3.1007V3.09612V3.09154V3.08696V3.08238V3.07781V3.07323V3.06865V3.06408V3.0595V3.05492V3.05035V3.04577V3.0412V3.03663V3.03205V3.02748V3.02291V3.01833V3.01376V3.00919V3.00462V3.00005V2.99548V2.99091V2.98634V2.98177V2.9772V2.97263V2.96806V2.96349V2.95893V2.95436V2.94979V2.94523V2.94066V2.93609V2.93153V2.92696V2.9224V2.91783V2.91327V2.9087V2.90414V2.89958V2.89501V2.89045V2.88589V2.88133V2.87677V2.8722V2.86764V2.86308V2.85852V2.85396V2.8494V2.84484V2.84028V2.83572V2.83116V2.82661V2.82205V2.81749V2.81293V2.80838V2.80382V2.79926V2.7947V2.79015V2.78559V2.78104V2.77648V2.77193V2.76737V2.76282V2.75826V2.75371V2.74915V2.7446V2.74005V2.73549V2.73094V2.72639V2.72184V2.71728V2.71273V2.70818V2.70363V2.69908V2.69453V2.68997V2.68542V2.68087V2.67632V2.67177V2.66722V2.66267V2.65812V2.65357V2.64903V2.64448V2.63993V2.63538V2.63083V2.62628V2.62174V2.61719V2.61264V2.60809V2.60355V2.599V2.59445V2.5899V2.58536V2.58081V2.57627V2.57172V2.56717V2.56263V2.55808V2.55354V2.54899V2.54445V2.5399V2.53536V2.53081V2.52627V2.52172V2.51718V2.51263V2.50809V2.50355V2.499V2.49446V2.48992V2.48537V2.48083V2.47629V2.47174V2.4672V2.46266V2.45811V2.45357V2.44903V2.44449V2.43994V2.4354V2.43086V2.42632V2.42178V2.41723V2.41269V2.40815V2.40361V2.39907V2.39452V2.38998V2.38544V2.3809V2.37636V2.37182V2.36728V2.36274V2.35819V2.35365V2.34911V2.34457V2.34003V2.33549V2.33095V2.32641V2.32254C35.3746 1.56697 35.2191 1.23311 35.0554 1.06925C34.892 0.905701 34.559 0.75 33.8038 0.75H33.7477H33.6916H33.5793H33.4671H33.3549H33.2426H33.1304H33.0182H32.9059H32.7937H32.6815H32.5692H32.457H32.3448H32.2325H32.1203H32.008H31.8958H31.7836H31.6713H31.5591H31.4469H31.3346H31.2224H31.1102H30.9979H30.8857H30.8576H30.8296H30.7735H30.6612H30.549H30.4368H30.3245H30.2123H30.1001H29.9878H29.8756H29.7634H29.6511H29.5389H29.4267H29.3144H29.2022H29.09H28.9777H28.8655H28.7533H28.641H28.5288H28.4166H28.3043H28.1921H28.0798H27.9676H27.8554H27.7431H27.6309H27.5187H27.4064H27.2942H27.182H27.0697H26.9575H26.8453H26.733H26.6208H26.5086H26.3963H26.2841H26.228H26.1999H26.1719H26.1438H26.1157H26.0877H26.0596H26.0316H26.0035H25.9755H25.9474H25.9193H25.8913H25.8632H25.8352H25.8071H25.779H25.751H25.7229H25.6949H25.6668H25.6388H25.6107H25.5826H25.5546H25.5265H25.4985H25.4704H25.4423H25.4143H25.3862H25.3582H25.3301H25.302H25.274H25.2459H25.2179H25.1898H25.1618H25.1337H25.1056H25.0776H25.0495H25.0215H24.9934H24.9653H24.9373H24.9092H24.8812H24.8531H24.8251H24.797H24.7689H24.7409H24.7128H24.6848H24.6567H24.6286H24.6006H24.5725H24.5445H24.5164H24.4884H24.4603H24.4322H24.4042H24.3761H24.3481H24.32H24.2919H24.2639H24.2358H24.2078H24.1797H24.1516H24.1236H24.0955H24.0675H24.0394H24.0114H23.9833H23.9552H23.9272H23.8991H23.8711H23.843H23.8149H23.7869H23.7588H23.7308H23.7027H23.6747H23.6466H23.6185H23.5905H23.5624H23.5344H23.5063H23.4782H23.4502H23.4221H23.3941H23.366H23.3379H23.3099H23.2818H23.2538H23.2257H23.1977H23.1696H23.1415H23.1135H23.0854H23.0574H23.0293H23.0012H22.9732H22.9451H22.9171H22.889H22.861H22.8329H22.8048H22.7768H22.7487H22.7207H22.6926H22.6645H22.6365H22.6084H22.5804H22.5523H22.5243H22.4962H22.4681H22.4401H22.412H22.384H22.3559H22.3278H22.2998H22.2717H22.2437H22.2156H22.1875H22.1595H22.1314H22.1034H22.0753H22.0473H22.0192H21.9911H21.9631H21.935H21.907H21.8789H21.8508H21.8228H21.7947H21.7667H21.7386H21.7106H21.6825H21.6544H21.6264H21.5983H21.5703H21.5422H21.5141H21.4861H21.458H21.43H21.4019H21.3738H21.3458H21.3177H21.2897H21.2616H21.2336H21.2055H21.1774H21.1494H21.1213H21.0933H21.0652H21.0371H21.0091H20.981H20.953H20.9249H20.8969H20.8688H20.8407H20.8127H20.7846H20.7566H20.7285H20.7004H20.6724H20.6443H20.6163H20.5882H20.5602H20.5321H20.504H20.476H20.4479H20.4199H20.3918H20.3637H20.3357H20.3076H20.2796H20.2515H20.2234H20.1954H20.1673H20.1393H20.1112H20.0832H20.0551H20.027H19.999H19.9709H19.9429H19.9148H19.8867H19.8587H19.8306H19.8026H19.7745H19.7465H19.7184H19.6903H19.6623H19.6342H19.6062H19.5781H19.55H19.522H19.4939H19.4659H19.4378C19.1975 0.75 18.9975 0.753603 18.8132 0.777694L34.9751 3.953ZM20.0813 1.9055C24.4435 1.89809 28.8056 1.89809 33.1677 1.9055H20.0813Z" stroke="black" stroke-width="1.5"/>
<path d="M22.8412 25.6929L23.5907 25.665C23.5662 25.0083 23.5712 24.3598 23.5763 23.6784C23.5767 23.6286 23.5771 23.5785 23.5775 23.5283H29.6658C29.6663 23.5797 29.6667 23.6308 29.6671 23.6819C29.6729 24.3705 29.6784 25.0285 29.6509 25.6949C29.6494 25.7289 29.6429 25.7468 29.6402 25.7531C29.639 25.7558 29.6381 25.7574 29.6376 25.7581C29.6364 25.759 29.6328 25.7613 29.6254 25.7641C29.6137 25.7685 29.589 25.7753 29.5477 25.7756L29.5472 25.7756L23.6109 25.7574L23.6108 25.7573L23.6102 25.7564C23.6095 25.7555 23.6077 25.7526 23.6054 25.747C23.6008 25.7362 23.5924 25.7104 23.5907 25.6644L22.8412 25.6929ZM22.8412 25.6929C22.8606 26.2011 23.2024 26.5241 23.7122 26.5286L22.8308 22.7783C22.8308 23.0735 22.8286 23.3653 22.8264 23.6545C22.8212 24.3437 22.8161 25.0186 22.8412 25.6929Z" stroke="black" stroke-width="1.5"/>
<path d="M1.70423 52.5534L1.71612 52.5506C1.71612 52.3744 1.71342 52.2116 1.71085 52.0565C1.70562 51.7412 1.70091 51.4577 1.72048 51.1577L1.72051 51.1571C1.7586 50.5668 2.24525 50.0914 2.81408 50.0556C3.38127 50.0207 3.90803 50.4536 3.95538 50.9949L3.95542 50.9953C4.0445 52.0075 4.01698 53.0434 3.97973 54.1159L3.9797 54.117C3.97837 54.1569 3.97115 54.1787 3.96745 54.1875C3.96404 54.1956 3.96166 54.1977 3.9611 54.1982C3.96034 54.199 3.95405 54.205 3.93581 54.2122C3.9169 54.2196 3.88226 54.2291 3.82762 54.2311L3.82702 54.2311C3.17511 54.2558 2.52701 54.2613 1.88842 54.2314L1.88718 54.2314C1.81951 54.2283 1.78202 54.2168 1.76562 54.21C1.75748 54.2067 1.7535 54.2042 1.75226 54.2033L1.75083 54.2022C1.75074 54.2021 1.74922 54.2005 1.7466 54.1962C1.74391 54.1918 1.73942 54.1834 1.73435 54.1696C1.72401 54.1416 1.71146 54.0915 1.70796 54.0124L1.70794 54.0121C1.69346 53.6886 1.69693 53.3765 1.70065 53.0417C1.7024 52.8851 1.70419 52.7235 1.70423 52.5534Z" stroke="black" stroke-width="1.5"/>
<path d="M3.03079 46.6992H2.65359V43.0141C2.77882 43.0627 2.90279 43.1114 3.02606 43.1607C3.03097 44.3427 3.03095 45.5242 3.03079 46.6992Z" stroke="black" stroke-width="1.5"/>
</svg>
