<svg width="61" height="55" viewBox="0 0 61 55" fill="none" xmlns="http://www.w3.org/2000/svg">
<path fill-rule="evenodd" clip-rule="evenodd" d="M59.0109 22.1009C59.0109 22.5915 58.6138 22.9908 58.1233 22.9908H53.488V19.4159L54.9002 18.1912C55.264 17.8766 55.8152 17.9987 56.012 18.4372L56.4323 19.3738C56.5709 19.6837 56.8784 19.883 57.2178 19.883H58.1233C58.6138 19.883 59.0109 20.2816 59.0109 20.772V22.1009ZM40.9311 22.9908H39.7228C39.2472 22.9908 38.8618 23.3753 38.8618 23.8511V32.0451H33.3202L32.8835 25.7569C33.3725 26.1054 34.0526 25.8656 34.2124 25.2882L36.2444 17.9762L40.9591 18.9953C42.4765 19.3223 43.9027 18.1755 43.9027 16.6199V10.2812H47.0114V19.6258C47.0114 21.4811 45.5018 22.9907 43.6457 22.9907H40.9311V22.9908ZM48.686 38.2493C50.5428 38.2493 52.0524 39.7572 52.0524 41.6133C52.0524 43.4685 50.5428 44.979 48.686 44.979C46.8308 44.979 45.3212 43.4685 45.3212 41.6133C45.3212 39.7572 46.8308 38.2493 48.686 38.2493ZM21.0085 22.9908H17.0855C15.2295 22.9908 13.7199 21.4812 13.7199 19.626V10.2813H16.8285V16.6201C16.8285 18.1765 18.2556 19.3222 19.7722 18.9954L24.487 17.9763L26.519 25.2883C26.6786 25.8651 27.3584 26.1058 27.8479 25.7571L27.4111 32.0453H21.8695V23.8511C21.8695 23.3753 21.4842 22.9908 21.0085 22.9908ZM12.0453 44.9788C10.1886 44.9788 8.67899 43.4684 8.67899 41.6132C8.67899 39.7571 10.1886 38.2491 12.0453 38.2491C13.9006 38.2491 15.4102 39.7571 15.4102 41.6132C15.4102 43.4685 13.9006 44.9788 12.0453 44.9788ZM7.12425 22.9908H2.61106C2.12064 22.9908 1.72037 22.5915 1.72037 22.1009V20.772C1.72037 20.2815 2.12051 19.883 2.61106 19.883H3.51421C3.85294 19.883 4.16037 19.6837 4.2989 19.3738L4.71937 18.4372C4.91618 17.9987 5.46732 17.8766 5.83113 18.1912L7.2434 19.4159V22.9908H7.12425ZM13.2762 22.9908H8.96472V19.883H12.0056C12.0648 21.0717 12.5359 22.1539 13.2762 22.9908ZM13.7199 3.92695C13.7199 3.43573 14.1192 3.0379 14.6097 3.0379H15.9387C16.4292 3.0379 16.8285 3.43573 16.8285 3.92695V4.83011C16.8285 5.16952 17.0271 5.47708 17.337 5.61561L18.2736 6.03608C18.7106 6.23289 18.8338 6.78457 18.5196 7.14784L17.2958 8.56011H13.72L13.7199 3.92695ZM30.3657 16.2083C29.3793 16.2083 28.4451 15.9895 27.6043 15.601V16.3017L30.3657 19.6945L33.1272 16.3017V15.601C32.2864 15.9895 31.3521 16.2083 30.3657 16.2083ZM25.4914 9.61413C25.4914 12.3016 27.6783 14.4869 30.3657 14.4869C33.0532 14.4869 35.2401 12.3016 35.2401 9.61413V3.99934C35.2401 2.74281 34.2171 1.72132 32.9606 1.72132H27.7709C26.5144 1.72132 25.4914 2.74281 25.4914 3.99934V9.61413ZM31.4587 21.0796L33.0212 23.1497L34.5595 17.6112L34.322 17.5605L31.4587 21.0796ZM29.742 23.3139L30.3655 22.4879L30.9892 23.3139L31.5941 32.0451H29.1371L29.742 23.3139ZM26.41 17.5606L26.1725 17.6113L27.7102 23.1498L29.2726 21.0797L26.41 17.5606ZM42.0561 6.53042C42.1075 6.29606 42.2391 6.13489 42.4579 6.03608L43.3944 5.61561C43.7043 5.47708 43.9028 5.16952 43.9028 4.83011V3.92695C43.9028 3.43573 44.3023 3.0379 44.7927 3.0379H46.1216C46.612 3.0379 47.0115 3.43573 47.0115 3.92695V8.55998H43.4357L42.2119 7.14771C42.0545 6.96553 42.0039 6.76397 42.0561 6.53042ZM48.7258 19.883H51.7668V22.9908H47.4553C48.1955 22.1539 48.6665 21.0717 48.7258 19.883ZM33.7305 49.914C33.7305 51.77 32.2209 53.2796 30.3657 53.2796C28.5104 53.2796 27.0008 51.77 27.0008 49.914C27.0008 48.0595 28.5104 46.55 30.3657 46.55C32.2209 46.55 33.7305 48.0594 33.7305 49.914ZM58.1234 18.1616H57.773L57.5815 17.7326C56.9156 16.2434 55.0062 15.8237 53.773 16.891L52.3071 18.1616H48.7328V3.92695C48.7328 2.48662 47.5611 1.31658 46.1216 1.31658H44.7927C43.3532 1.31658 42.1815 2.48676 42.1815 3.92695V4.27342L41.7541 4.46643C40.2651 5.13631 39.8418 7.03872 40.911 8.27343L42.1815 9.74182V16.6201C42.1815 17.0789 41.7708 17.4095 41.3236 17.313L34.8487 15.9132V14.4456C36.1465 13.2404 36.9616 11.5206 36.9616 9.614V3.99934C36.9616 1.7937 35.167 0 32.9607 0H27.771C25.5654 0 23.7702 1.7937 23.7702 3.99934V9.61413C23.7702 11.5207 24.5854 13.2406 25.8831 14.4457V15.9133L19.4096 17.3131C18.961 17.4092 18.5501 17.0798 18.5501 16.6202V9.74195L19.8199 8.27356C20.8891 7.0394 20.4674 5.13618 18.9783 4.46657L18.5501 4.27355V3.92695C18.5501 2.48662 17.3784 1.31658 15.9389 1.31658H14.61C13.1705 1.31658 11.9988 2.48676 11.9988 3.92695V18.1616H8.42443L6.95848 16.891C5.72364 15.8224 3.81824 16.2443 3.14986 17.7326L2.95684 18.1616H2.61119C1.17167 18.1616 0 19.3318 0 20.772V22.1009C0 23.5404 1.17167 24.7121 2.61119 24.7121H20.1484V32.5418L15.0389 37.5048C14.1981 36.8905 13.1641 36.5278 12.0455 36.5278C9.24043 36.5278 6.95848 38.8081 6.95848 41.6132C6.95848 44.4175 9.24043 46.6993 12.0455 46.6993C16.138 46.6993 18.5414 42.0917 16.2386 38.7397L21.3583 33.7664H29.5056V44.9025C27.1093 45.3128 25.2798 47.4024 25.2798 49.9138C25.2798 52.7182 27.5616 55 30.366 55C33.1703 55 35.4521 52.7182 35.4521 49.9138C35.4521 47.4023 33.6225 45.3128 31.2263 44.9025V33.7664H39.3736L44.4925 38.7397C42.1906 42.0952 44.5959 46.6993 48.6865 46.6993C51.4923 46.6993 53.7733 44.4175 53.7733 41.6132C53.7733 38.8081 51.4922 36.5278 48.6865 36.5278C47.5676 36.5278 46.5338 36.8907 45.693 37.5048L40.5835 32.5418V24.7121H58.1238C59.5642 24.7121 60.7319 23.5404 60.7319 22.1009V20.772C60.7315 19.3317 59.5636 18.1616 58.1234 18.1616Z" fill="black"/>
</svg>
