<svg width="55" height="55" viewBox="0 0 55 55" fill="none" xmlns="http://www.w3.org/2000/svg">
<g clip-path="url(#clip0_3_695)">
<path d="M5.69121 5.21191H5.70238C6.14732 5.21191 6.50804 4.8513 6.50804 4.40625C6.50804 3.9612 6.14732 3.60059 5.70238 3.60059H5.69121C5.24627 3.60059 4.88554 3.9612 4.88554 4.40625C4.88554 4.8513 5.24627 5.21191 5.69121 5.21191Z" fill="black"/>
<path d="M8.4946 5.21191H8.50577C8.95071 5.21191 9.31143 4.8513 9.31143 4.40625C9.31143 3.9612 8.95071 3.60059 8.50577 3.60059H8.4946C8.04966 3.60059 7.68893 3.9612 7.68893 4.40625C7.68893 4.8513 8.04966 5.21191 8.4946 5.21191Z" fill="black"/>
<path d="M11.298 5.21191H11.3092C11.7541 5.21191 12.1148 4.8513 12.1148 4.40625C12.1148 3.9612 11.7541 3.60059 11.3092 3.60059H11.298C10.853 3.60059 10.4923 3.9612 10.4923 4.40625C10.4923 4.8513 10.853 5.21191 11.298 5.21191Z" fill="black"/>
<path d="M52.583 0.214844H2.41699C1.08421 0.214844 0 1.29905 0 2.63184V39.9504C0 41.2831 1.08421 42.3674 2.41699 42.3674H7.09135C7.53629 42.3674 7.89701 42.0068 7.89701 41.5617C7.89701 41.1167 7.53629 40.7561 7.09135 40.7561H2.41699C1.9727 40.7561 1.61133 40.3947 1.61133 39.9504V8.59708H39.4044C39.8494 8.59708 40.21 8.23646 40.21 7.79142C40.21 7.34637 39.8494 6.98575 39.4044 6.98575H17.0714V1.82617H52.583C53.0273 1.82617 53.3887 2.18754 53.3887 2.63184V6.98575H43.3819C42.9368 6.98575 42.5762 7.34637 42.5762 7.79142C42.5762 8.23646 42.9368 8.59708 43.3819 8.59708H53.3887V39.9504C53.3887 40.3947 53.0273 40.7561 52.583 40.7561H46.6392C46.9006 39.9817 47.0937 39.1817 47.2136 38.3649C47.2782 37.9245 46.9738 37.5154 46.5334 37.4507C46.0939 37.3865 45.6841 37.6904 45.6193 38.1309C44.7487 44.0637 39.5629 48.5376 33.5568 48.5376C26.8334 48.5376 21.3635 43.0678 21.3635 36.3445C21.3635 29.621 26.8333 24.1512 33.5567 24.1512C39.5797 24.1512 44.6425 28.4606 45.5947 34.398C45.6651 34.8373 46.0781 35.1363 46.5177 35.0659C46.9571 34.9955 47.2562 34.5822 47.1857 34.1429C46.6718 30.9385 45.0267 28.0022 42.5538 25.8748C40.0539 23.7242 36.8585 22.5399 33.5567 22.5399C27.5966 22.5399 22.5069 26.3368 20.5786 31.6386H6.66263C6.21768 31.6386 5.85696 31.9993 5.85696 32.4443C5.85696 32.8894 6.21768 33.25 6.66263 33.25H20.1022C19.9877 33.7482 19.901 34.2569 19.8421 34.774H6.66263C6.21768 34.774 5.85696 35.1346 5.85696 35.5796C5.85696 36.0247 6.21768 36.3853 6.66263 36.3853H19.7528C19.7574 37.9126 20.0108 39.3825 20.4751 40.7561H11.0687C10.6238 40.7561 10.2631 41.1167 10.2631 41.5617C10.2631 42.0068 10.6238 42.3674 11.0687 42.3674H21.1372C23.3781 46.9697 28.103 50.1489 33.5568 50.1489C36.3451 50.1489 39.0527 49.3057 41.3331 47.75L42.9322 49.3491C42.3235 50.0328 42.3448 51.0837 43.0003 51.7393L44.2369 52.9758C44.5767 53.3156 45.023 53.4855 45.4695 53.4855C45.8842 53.4855 46.2978 53.337 46.6271 53.0438L48.1345 54.5502C48.2917 54.7075 48.4979 54.786 48.704 54.786C48.9103 54.786 49.1165 54.7074 49.2739 54.5499C49.5885 54.2352 49.5883 53.725 49.2735 53.4106L47.7702 51.9081L49.1202 50.5581L50.6232 52.0611C50.7806 52.2184 50.9868 52.297 51.193 52.297C51.3991 52.297 51.6054 52.2184 51.7627 52.0611C52.0774 51.7464 52.0774 51.2364 51.7627 50.9217L50.2498 49.4088C50.4898 49.1033 50.6212 48.7296 50.6212 48.3351C50.6212 47.8693 50.4398 47.4316 50.1106 47.1024L48.8739 45.8657C48.2448 45.2367 47.2511 45.1912 46.5676 45.7265L44.9617 44.1207C45.3435 43.5614 45.6835 42.9754 45.9788 42.3673H52.5831C53.9158 42.3673 55.0001 41.283 55.0001 39.9503V2.63184C55 1.29905 53.9157 0.214844 52.583 0.214844ZM15.46 6.98575H1.61133V2.63184C1.61133 2.18754 1.9727 1.82617 2.41699 1.82617H15.46V6.98575ZM47.6412 46.9666C47.6749 46.9666 47.7087 46.9793 47.7344 47.005L48.9711 48.2418C49.003 48.2737 49.0096 48.3101 49.0096 48.335C49.0096 48.3598 49.0028 48.3963 48.9709 48.4282L45.563 51.8363C45.5115 51.8878 45.4278 51.8878 45.3763 51.8363L44.1398 50.5999C44.0883 50.5484 44.0883 50.4645 44.1398 50.4132L47.5477 47.0051C47.5735 46.9796 47.6073 46.9666 47.6412 46.9666ZM45.4182 46.8559L44.0681 48.2061L42.6194 46.7575C42.6196 46.7573 42.6199 46.7571 42.6202 46.7569C43.1028 46.3363 43.5529 45.8848 43.969 45.4068L45.4182 46.8559Z" fill="black"/>
<path d="M33.4791 26.3701C30.8149 26.3701 28.3102 27.4076 26.4263 29.2915C24.5425 31.1753 23.505 33.6801 23.505 36.3442C23.505 41.8439 27.9793 46.3184 33.4791 46.3184C38.9789 46.3184 43.4533 41.844 43.4533 36.3441C43.4533 30.8445 38.9789 26.3701 33.4791 26.3701ZM33.4791 44.707C29.5226 44.707 26.2016 41.9445 25.3375 38.2476H31.4937C31.9388 38.2476 32.2994 37.887 32.2994 37.442C32.2994 36.9969 31.9388 36.6363 31.4937 36.6363H25.1238C25.1205 36.5392 25.1164 36.4422 25.1164 36.3442C25.1164 35.6875 25.1936 35.0428 25.34 34.4189H31.2735C31.7186 34.4189 32.0792 34.0583 32.0792 33.6133C32.0792 33.1682 31.7186 32.8076 31.2735 32.8076H25.897C26.3045 31.9354 26.8648 31.1317 27.5657 30.4308C29.1453 28.8512 31.2453 27.9813 33.4791 27.9813C38.0904 27.9813 41.842 31.7328 41.842 36.3441C41.842 40.9554 38.0904 44.707 33.4791 44.707Z" fill="black"/>
<path d="M5.39526 16.8175C4.95032 16.8175 4.5896 17.1781 4.5896 17.6232V18.314C4.5896 20.1016 6.04388 21.5559 7.83148 21.5559C9.61909 21.5559 11.0734 20.1016 11.0734 18.314V12.4902C11.0734 12.0452 10.7126 11.6846 10.2677 11.6846H6.70431C6.25937 11.6846 5.89864 12.0452 5.89864 12.4902C5.89864 12.9353 6.25937 13.2959 6.70431 13.2959H9.46204V18.314C9.46204 19.213 8.73061 19.9446 7.83148 19.9446C6.93236 19.9446 6.20093 19.213 6.20093 18.314V17.6232C6.20093 17.1782 5.8402 16.8175 5.39526 16.8175Z" fill="black"/>
<path d="M18.8888 18.314V14.9265C18.8888 13.1388 17.4346 11.6846 15.647 11.6846C13.8595 11.6846 12.4052 13.1388 12.4052 14.9265V18.314C12.4052 20.1016 13.8595 21.5559 15.647 21.5559C17.4346 21.5559 18.8888 20.1015 18.8888 18.314ZM14.0165 18.314V14.9265C14.0165 14.0274 14.7479 13.2959 15.647 13.2959C16.5461 13.2959 17.2775 14.0274 17.2775 14.9265V18.314C17.2775 19.213 16.5461 19.9446 15.647 19.9446C14.7479 19.9446 14.0165 19.213 14.0165 18.314Z" fill="black"/>
<path d="M20.305 20.7502C20.305 21.1953 20.6657 21.5559 21.1107 21.5559H24.0685C25.5685 21.5559 26.7887 20.3357 26.7887 18.8358V18.2338C26.7887 17.3239 26.3392 16.5176 25.6511 16.0234C25.9873 15.5708 26.1867 15.0107 26.1867 14.4047C26.1867 12.9048 24.9665 11.6846 23.4665 11.6846H21.1107C20.6657 11.6846 20.305 12.0452 20.305 12.4902V20.7502ZM25.1773 18.8356C25.1773 19.447 24.68 19.9445 24.0685 19.9445H21.9163V17.1248H24.0685C24.68 17.1248 25.1773 17.6223 25.1773 18.2337V18.8356ZM23.4665 13.2959C24.0779 13.2959 24.5753 13.7934 24.5753 14.4047C24.5753 15.016 24.078 15.5135 23.4665 15.5135H21.9163V13.2958L23.4665 13.2959Z" fill="black"/>
<path d="M45.0629 12.3562C44.1699 13.2493 44.1699 14.7025 45.063 15.5956C45.5095 16.042 46.096 16.2653 46.6826 16.2653C47.0056 16.2653 47.3275 16.195 47.6271 16.0598L48.5784 17.0111C48.7358 17.1684 48.942 17.247 49.1482 17.247C49.3543 17.247 49.5606 17.1684 49.718 17.0111C50.0326 16.6963 50.0326 16.1863 49.718 15.8717L48.7667 14.9204C49.1479 14.0768 48.9948 13.0487 48.3025 12.3564C47.4092 11.4634 45.9562 11.4633 45.0629 12.3562ZM46.2025 14.4562C45.9376 14.1914 45.9376 13.7604 46.2025 13.4957C46.3348 13.3633 46.5088 13.297 46.6828 13.297C46.8567 13.297 47.0306 13.3632 47.163 13.4956C47.4278 13.7605 47.4278 14.1915 47.1631 14.4562C46.898 14.721 46.4672 14.721 46.2025 14.4562Z" fill="black"/>
<path d="M30.3792 19.1621C30.3792 19.6072 30.7398 19.9678 31.1849 19.9678H49.6047C50.0498 19.9678 50.4104 19.6072 50.4104 19.1621C50.4104 18.7171 50.0498 18.3564 49.6047 18.3564H31.1849C30.7398 18.3564 30.3792 18.7172 30.3792 19.1621Z" fill="black"/>
<path d="M5.85696 29.3086C5.85696 29.7536 6.21769 30.1143 6.66263 30.1143H14.6124C15.0573 30.1143 15.418 29.7536 15.418 29.3086C15.418 28.8635 15.0573 28.5029 14.6124 28.5029H6.66263C6.21769 28.5029 5.85696 28.8637 5.85696 29.3086Z" fill="black"/>
<path d="M49.5992 21.9053C49.1541 21.9053 48.7935 22.2659 48.7935 22.7109C48.7935 23.156 49.1541 23.5166 49.5992 23.5166H49.6103C50.0554 23.5166 50.416 23.156 50.416 22.7109C50.416 22.2659 50.0554 21.9053 49.6103 21.9053H49.5992Z" fill="black"/>
</g>
<defs>
<clipPath id="clip0_3_695">
<rect width="55" height="55" fill="white"/>
</clipPath>
</defs>
</svg>
