<svg width="55" height="55" viewBox="0 0 55 55" fill="none" xmlns="http://www.w3.org/2000/svg">
<path d="M6.11899 7.38421C5.7507 7.51205 5.50361 7.85906 5.50309 8.24893C5.50302 9.77064 5.50309 11.3045 5.50309 12.8304H4.58283C4.07659 12.8324 3.66784 13.2444 3.66975 13.7507V19.2524C3.67179 19.7558 4.0794 20.1634 4.58283 20.1654H8.24952C8.75649 20.1684 9.16957 19.7593 9.17158 19.2524V13.7507C9.17348 13.2409 8.75926 12.8275 8.24952 12.8304H7.33643V10.1252L13.7514 15.1167V17.9347C9.27524 21.8029 6.41618 27.5439 6.41618 33.9152C6.41618 35.2584 6.54783 36.5712 6.78858 37.845C3.11223 41.4304 0.858668 44.5931 0.18928 47.2891C-0.151287 48.6611 -0.0501219 49.9846 0.638668 51.0165C1.32756 52.0484 2.51601 52.6843 4.01887 52.9716C6.8498 53.5127 10.9508 52.8694 15.6474 51.3531C19.0271 53.658 23.1532 55 27.5014 55C39.1418 55 48.5866 45.5482 48.5866 33.9152C48.5866 33.1277 48.5402 32.3549 48.456 31.5896C51.4166 28.67 53.5445 25.8808 54.4914 23.3791C55.0552 21.8894 55.1773 20.5157 54.7208 19.3544C54.264 18.1931 53.2757 17.3901 51.951 16.9518C49.4838 16.1354 45.8763 16.4478 41.2517 17.7485V15.1167L49.1491 8.97403C49.7232 8.52734 49.5733 7.62209 48.8858 7.38421L27.8006 0.0491968C27.7136 0.0180157 27.6187 0 27.4999 0C27.39 0.000900788 27.2864 0.0207873 27.208 0.0491968L6.11899 7.38421ZM27.5016 1.88965L46.6926 8.56046L41.2516 12.7911V11.9514C41.2533 11.6766 41.1318 11.416 40.9204 11.2406C37.1427 8.12161 32.3996 6.41562 27.4944 6.41562C22.5892 6.41562 17.8605 8.12161 14.0827 11.2406C13.8714 11.4159 13.7498 11.6768 13.7515 11.9514V12.7911L8.31237 8.56046L27.5016 1.88965ZM39.4183 12.3892V16.5275C36.0251 14.1935 31.9256 12.8304 27.5016 12.8304C23.0715 12.8304 18.9118 14.2334 15.5849 16.5257V12.3913C18.892 9.77085 23.0936 8.24893 27.4944 8.24893C31.8452 8.24893 36.0765 9.74133 39.4183 12.3892ZM5.50326 14.6637H7.33661V18.3321H5.50326V14.6637ZM40.9706 20.1654H30.2498C28.7422 20.1654 27.5016 21.3881 27.5016 22.9208C27.5016 24.4534 28.7422 25.6671 30.2498 25.6671H32.0832C32.5818 25.6671 33.0034 26.0565 33.0034 26.5802C33.0034 28.1236 34.2422 29.3355 35.7498 29.3355H46.2021C46.3285 29.854 46.4356 30.3967 46.5191 30.9307C46.1788 31.2561 45.8389 31.5641 45.4771 31.8921C41.6982 35.3187 36.7748 38.9074 31.2758 42.1329C25.9311 45.2678 20.5984 47.7358 15.9484 49.3157C11.9682 46.3265 9.18055 41.79 8.44856 36.6706H21.0886C22.5962 36.6706 23.835 35.4497 23.835 33.917C23.835 32.3843 22.5962 31.1706 21.0886 31.1706H19.2535C18.7548 31.1706 18.3332 30.7794 18.3332 30.2558C18.3332 28.7123 17.0944 27.5004 15.5868 27.5004H9.35267C11.9916 20.0181 19.1738 14.6637 27.5016 14.6637C32.7507 14.6637 37.4998 16.7658 40.9706 20.1654ZM51.3762 18.7135C52.3235 19.027 52.8183 19.5176 53.0308 20.058C53.2623 20.6465 53.256 21.5136 52.796 22.7292C52.1058 24.5526 50.4636 26.8752 48.0891 29.3642C47.2351 25.5012 45.3242 22.0245 42.6696 19.2757C44.9766 18.6896 46.9595 18.3927 48.5492 18.3661C49.713 18.3453 50.6658 18.4784 51.3762 18.7135ZM42.6088 21.9987C43.9043 23.6395 44.9465 25.4894 45.656 27.5004H35.7498C35.2477 27.5004 34.8368 27.1039 34.8368 26.5802C34.8368 25.0726 33.6123 23.8338 32.0832 23.8338H30.2496C29.726 23.8338 29.3366 23.4158 29.3366 22.9208C29.3366 22.4257 29.726 21.9987 30.2497 21.9987H42.6088ZM15.5867 29.3355C16.0889 29.3355 16.4998 29.7321 16.4998 30.2558C16.4998 31.7634 17.7242 33.0039 19.2534 33.0039H21.0885C21.6122 33.0039 22.0016 33.422 22.0016 33.917C22.0016 34.412 21.6122 34.8372 21.0885 34.8372H8.27297C8.25912 34.5317 8.24872 34.2244 8.24872 33.9152C8.24872 32.336 8.44447 30.8037 8.80245 29.3355H15.5867ZM37.5832 43.0835C36.0755 43.0835 34.8368 44.2937 34.8368 45.8371C34.8368 46.3608 34.4151 46.7501 33.9165 46.7501H31.1647C29.6571 46.7501 28.4183 47.9656 28.4183 49.4983V53.1434C28.1144 53.1573 27.809 53.1677 27.5016 53.1677C23.9927 53.1677 20.7041 52.2238 17.873 50.5878C22.3185 48.9636 27.2406 46.6262 32.1709 43.7344C37.7692 40.4507 42.7866 36.8038 46.6819 33.2717C46.6992 33.2544 46.7172 33.237 46.7356 33.2214C46.7425 33.4522 46.7529 33.6832 46.7529 33.9161C46.7529 37.2369 45.8935 40.3819 44.429 43.0844L37.5832 43.0835ZM13.8497 49.9838C9.84675 51.1558 6.52638 51.5669 4.36817 51.1544C3.16472 50.9243 2.4761 50.4586 2.14454 49.962C1.8213 49.4779 1.69467 48.7589 1.95122 47.7259C2.41807 45.8456 4.21095 43.0662 7.29009 39.9164C8.48133 43.9156 10.7805 47.3722 13.8497 49.9838ZM37.5832 44.9168H43.2945C40.3135 49.1908 35.6496 52.1977 30.2516 52.968V49.4983C30.2516 49.0033 30.641 48.5853 31.1647 48.5853H33.9165C35.4456 48.5853 36.6701 47.3447 36.6701 45.8371C36.6701 45.3134 37.081 44.9168 37.5832 44.9168Z" fill="black"/>
</svg>
