<svg width="17" height="16" viewBox="0 0 17 16" fill="none" xmlns="http://www.w3.org/2000/svg">
<path d="M11.788 5.05273C13.1281 5.05273 14.4132 5.58506 15.3608 6.53261C16.3083 7.48016 16.8407 8.76532 16.8407 10.1054V16.0001H13.4722V10.1054C13.4722 9.65867 13.2948 9.23029 12.9789 8.91444C12.6631 8.59859 12.2347 8.42115 11.788 8.42115C11.3414 8.42115 10.913 8.59859 10.5971 8.91444C10.2813 9.23029 10.1038 9.65867 10.1038 10.1054V16.0001H6.73541V10.1054C6.73541 8.76532 7.26774 7.48016 8.21529 6.53261C9.16284 5.58506 10.448 5.05273 11.788 5.05273Z" fill="white"/>
<path d="M3.36841 5.89453H0V15.9998H3.36841V5.89453Z" fill="white"/>
<path d="M1.68421 3.36841C2.61437 3.36841 3.36841 2.61437 3.36841 1.68421C3.36841 0.754045 2.61437 0 1.68421 0C0.754045 0 0 0.754045 0 1.68421C0 2.61437 0.754045 3.36841 1.68421 3.36841Z" fill="white"/>
</svg>
