<svg width="17" height="17" viewBox="0 0 17 17" fill="none" xmlns="http://www.w3.org/2000/svg">
<path d="M11.7021 1H4.56738C2.59717 1 1 2.59717 1 4.56738V11.7021C1 13.6724 2.59717 15.2695 4.56738 15.2695H11.7021C13.6724 15.2695 15.2695 13.6724 15.2695 11.7021V4.56738C15.2695 2.59717 13.6724 1 11.7021 1Z" stroke="white" stroke-width="1.5" stroke-linecap="round" stroke-linejoin="round"/>
<path d="M10.9888 7.68529C11.0768 8.27908 10.9754 8.88551 10.6989 9.41833C10.4225 9.95116 9.98502 10.3832 9.44883 10.6531C8.91263 10.923 8.305 11.0169 7.71234 10.9216C7.11968 10.8262 6.57218 10.5464 6.14772 10.1219C5.72326 9.69746 5.44344 9.14997 5.34808 8.55731C5.25271 7.96465 5.34665 7.35701 5.61653 6.82082C5.88641 6.28463 6.31849 5.84719 6.85131 5.57072C7.38414 5.29424 7.99057 5.19282 8.58436 5.28087C9.19005 5.37069 9.75079 5.65292 10.1838 6.08589C10.6167 6.51886 10.899 7.0796 10.9888 7.68529Z" stroke="white" stroke-width="1.5" stroke-linecap="round" stroke-linejoin="round"/>
</svg>
