<svg width="15" height="15" viewBox="0 0 15 15" fill="none" xmlns="http://www.w3.org/2000/svg">
<path fill-rule="evenodd" clip-rule="evenodd" d="M9.64286 1.60714C9.64286 1.31128 9.8827 1.07143 10.1786 1.07143H13.3929C13.6887 1.07143 13.9286 1.31128 13.9286 1.60714V4.82143C13.9286 5.1173 13.6887 5.35714 13.3929 5.35714C13.097 5.35714 12.8571 5.1173 12.8571 4.82143V2.90047L9.48595 6.27166C9.27674 6.48087 8.93754 6.48087 8.72834 6.27166C8.51913 6.06245 8.51913 5.72326 8.72834 5.51405L12.0995 2.14286H10.1786C9.8827 2.14286 9.64286 1.90301 9.64286 1.60714Z" fill="white"/>
<path fill-rule="evenodd" clip-rule="evenodd" d="M0 2.14286C0 0.95939 0.95939 0 2.14286 0H3.12259C3.73714 0 4.27284 0.418255 4.42189 1.01446L5.21174 4.17388C5.34243 4.69664 5.1471 5.24682 4.71602 5.57013L3.792 6.26314C3.69605 6.33511 3.67519 6.44049 3.70214 6.51406C4.51322 8.7282 6.2718 10.4868 8.48594 11.2979C8.55952 11.3248 8.6649 11.3039 8.73686 11.208L9.42987 10.284C9.75318 9.8529 10.3034 9.65757 10.8261 9.78826L13.9855 10.5781C14.5817 10.7272 15 11.2629 15 11.8774V12.8571C15 14.0406 14.0406 15 12.8571 15H11.25C5.0368 15 0 9.9632 0 3.75V2.14286Z" fill="white"/>
</svg>
