<svg width="20" height="18" viewBox="0 0 20 18" fill="none" xmlns="http://www.w3.org/2000/svg">
<path d="M10.2298 0C10.9986 0 11.6151 0.615837 11.6151 1.38467C11.6151 2.1535 10.9986 2.77001 10.2298 2.77001C9.46093 2.77001 8.84509 2.1535 8.84509 1.38467C8.84509 0.615837 9.46093 0 10.2298 0Z" fill="white"/>
<path d="M5.03187 2.73926L5.03593 6.29355C4.37319 6.19195 3.75714 6.07426 3.21449 5.9386C2.32625 5.71654 1.61551 5.44877 1.15507 5.17663C0.694634 4.90448 0.537109 4.65928 0.537109 4.49984C0.537109 4.39682 0.589773 4.26233 0.78186 4.08809C0.973948 3.91386 1.29421 3.72132 1.71962 3.54112C2.48011 3.21899 3.67863 2.95272 5.03187 2.73926Z" fill="white"/>
<path d="M15.4211 2.73926C16.7759 2.95267 17.9767 3.2188 18.7381 3.54112C19.164 3.72139 19.4809 3.91374 19.6732 4.08809C19.8655 4.26244 19.9213 4.39676 19.9213 4.49984C19.9213 4.65928 19.7631 4.90448 19.3027 5.17663C18.8422 5.44877 18.1315 5.71654 17.2433 5.9386C16.7003 6.07432 16.0842 6.19191 15.4211 6.29355V2.73926Z" fill="white"/>
<path d="M8.50042 3.80762H11.9601C11.9601 3.80762 12.2353 3.81102 12.4989 3.94284C12.7625 4.07465 12.9999 4.32458 12.9999 4.84476L12.9992 6.56208C12.12 6.62559 11.1922 6.66147 10.2299 6.66147C9.26685 6.66147 8.33903 6.62569 7.4592 6.56208L7.45989 4.84476C7.46015 4.32052 7.69726 4.07465 7.96089 3.94284C8.22453 3.81103 8.50042 3.80762 8.50042 3.80762Z" fill="white"/>
<path d="M0.537109 5.60059C0.621117 5.66115 0.708859 5.72016 0.80282 5.7757C1.35837 6.10406 2.11771 6.37926 3.04614 6.61137C4.90301 7.07558 7.43357 7.35441 10.2291 7.35441C13.0246 7.35441 15.5559 7.07558 17.4127 6.61137C18.3412 6.37926 19.1005 6.10406 19.6561 5.7757C19.7501 5.72013 19.8377 5.66119 19.9218 5.60059V11.1649C19.9218 11.3244 19.7636 11.5696 19.3031 11.8417C18.8427 12.1139 18.132 12.3816 17.2437 12.6037C16.7713 12.7218 16.2453 12.8268 15.6806 12.9194L12.5367 10.1244C12.4752 10.07 12.3963 10.0396 12.3142 10.0379C12.2061 10.0354 12.1031 10.0838 12.0357 10.1684L10.8498 11.6497L8.41782 8.77558C8.34944 8.69461 8.24721 8.64903 8.14129 8.65254C8.04341 8.65581 7.95161 8.70076 7.88842 8.77558L4.43352 12.8593C4.00057 12.7815 3.58849 12.6972 3.21449 12.6037C2.32625 12.3816 1.61551 12.1139 1.15507 11.8417C0.694634 11.5696 0.537109 11.3244 0.537109 11.1649V5.60059Z" fill="white"/>
<path d="M8.15403 9.53418L11.3493 13.3096C10.9821 13.3198 10.6099 13.3265 10.2317 13.3265C8.40451 13.3265 6.69796 13.2015 5.23325 12.9884L8.15403 9.53418Z" fill="white"/>
<path d="M12.3511 10.8857L14.7844 13.0493C13.9885 13.1518 13.1316 13.2297 12.2253 13.2758L11.3079 12.1893L12.3511 10.8857Z" fill="white"/>
<path d="M8.15121 13.9648C8.82255 13.9998 9.51705 14.0183 10.2296 14.0183C10.9416 14.0183 11.6357 13.9998 12.3066 13.9648L12.3073 16.9627C12.3074 17.4829 12.0699 17.7328 11.8063 17.8646C11.5426 17.9964 11.2674 17.9999 11.2674 17.9999H10.5744V15.5774H9.88205V17.9999H9.19242C9.19242 17.9999 8.91651 17.9964 8.65289 17.8646C8.38926 17.7328 8.15189 17.4829 8.15189 16.9627L8.15121 13.9648Z" fill="white"/>
</svg>
