<svg width="16" height="16" viewBox="0 0 16 16" fill="none" xmlns="http://www.w3.org/2000/svg">
<path d="M7.98 0C3.57622 0 0 3.57622 0 7.98C0 9.63511 0.502444 11.2607 1.47778 12.6202C1.53689 12.7089 1.53689 12.8271 1.50733 12.9158L0.266 15.694L3.07378 14.5118C3.10333 14.4822 3.16244 14.4822 3.22156 14.4822C3.28067 14.4822 3.33978 14.5118 3.39889 14.5413C4.75844 15.4576 6.32489 15.96 7.98 15.96C12.3838 15.96 15.96 12.3838 15.96 7.98C15.96 3.57622 12.3838 0 7.98 0ZM12.3247 11.4676C12.2064 11.6744 12.0882 11.8518 11.9109 11.9996C11.6449 12.2656 11.3198 12.4724 10.9356 12.5611H10.906C10.0784 12.3247 9.13267 11.8518 8.15733 11.1424C7.53667 10.6991 6.94556 10.1671 6.35444 9.576C5.76333 8.98489 5.26089 8.39378 4.788 7.77311C4.07867 6.79778 3.60578 5.852 3.36933 5.02444V4.99489C3.48756 4.64022 3.66489 4.28556 3.93089 4.01956C4.07867 3.87178 4.28556 3.724 4.46289 3.60578C4.788 3.42844 5.14267 3.33978 5.49733 3.33978C5.586 3.33978 5.64511 3.33978 5.73378 3.33978C5.76333 3.33978 5.79289 3.36933 5.79289 3.39889C5.88156 3.60578 5.94067 3.78311 6.02933 3.93089C6.23622 4.46289 6.384 4.87667 7.03422 5.61556C7.06378 5.64511 7.06378 5.67467 7.03422 5.70422C6.916 6.02933 6.73867 6.32489 6.50222 6.56133C6.44311 6.62044 6.41356 6.65 6.35444 6.67956C6.20667 6.79778 6.118 6.97511 6.118 7.15244C6.118 7.32978 6.17711 7.50711 6.29533 7.65489C6.41356 7.77311 7.15244 8.512 7.24111 8.63022C7.35933 8.74844 8.06867 9.45778 8.21644 9.576C8.33467 9.69422 8.54156 9.75333 8.71889 9.75333C8.89622 9.75333 9.07355 9.66467 9.19178 9.51689C9.22133 9.45778 9.28044 9.42822 9.33956 9.36911C9.576 9.13267 9.87156 8.95533 10.1967 8.83711C10.2262 8.83711 10.2558 8.83711 10.2853 8.83711C11.0242 9.45778 11.438 9.63511 11.97 9.842C12.1178 9.90111 12.2951 9.96022 12.502 10.0784C12.5316 10.0784 12.5611 10.108 12.5611 10.1376C12.6202 10.6104 12.5316 11.0833 12.3247 11.4676Z" fill="white"/>
</svg>
