<svg width="24" height="17" viewBox="0 0 24 17" fill="none" xmlns="http://www.w3.org/2000/svg">
<path d="M21.8997 3.348C21.7844 2.88753 21.5497 2.46563 21.2192 2.12491C20.8887 1.78419 20.4741 1.53673 20.0174 1.4075C18.3486 1 11.6733 1 11.6733 1C11.6733 1 4.99797 1 3.32914 1.44631C2.8724 1.57553 2.45784 1.823 2.12735 2.16372C1.79685 2.50444 1.56212 2.92634 1.44687 3.3868C1.14145 5.08042 0.992051 6.79849 1.00055 8.51941C0.989668 10.2533 1.13907 11.9844 1.44687 13.6908C1.57393 14.137 1.81392 14.5428 2.14364 14.8692C2.47337 15.1955 2.88169 15.4313 3.32914 15.5537C4.99797 16 11.6733 16 11.6733 16C11.6733 16 18.3486 16 20.0174 15.5537C20.4741 15.4245 20.8887 15.177 21.2192 14.8363C21.5497 14.4956 21.7844 14.0737 21.8997 13.6132C22.2027 11.9323 22.3521 10.2274 22.346 8.51941C22.3568 6.78553 22.2074 5.05436 21.8997 3.348Z" stroke="#FEFEFE" stroke-width="1.5" stroke-linecap="round" stroke-linejoin="round"/>
<path d="M9.49121 11.6921L15.0701 8.51938L9.49121 5.34668V11.6921Z" stroke="#FEFEFE" stroke-width="1.5" stroke-linecap="round" stroke-linejoin="round"/>
</svg>
